<?xml version="1.0" encoding="UTF-8"?>
<svg width="128px" height="128px" viewBox="0 0 128 128" version="1.1" xmlns="http://www.w3.org/2000/svg" xmlns:xlink="http://www.w3.org/1999/xlink">
    <!-- Generator: Sketch 50.2 (55047) - http://www.bohemiancoding.com/sketch -->
    <title>icon</title>
    <desc>Created with Sketch.</desc>
    <defs></defs>
    <g id="icon" stroke="none" stroke-width="1" fill="none" fill-rule="evenodd">
        <g id="logo-icon" transform="translate(14.000000, 14.000000)" fill="#193EEE">
            <path d="M37.7182446,98.480426 L40.4981452,75.8896287 L49.2421834,75.8896287 C61.600424,75.8896287 70.927398,72.7643531 76.2904081,66.9768057 C81.5368309,61.3050093 82.3529412,54.3599524 82.3529412,48.8039069 C82.3529412,43.7108652 81.6534181,36.7658083 75.8240594,31.0940118 C69.9947006,25.4222154 62.0667727,24.2647059 53.2061473,24.2647059 L27.2072072,24.2647059 L19.1479952,89.3493208 C7.48938412,80.1955595 0,65.9723994 0,50 C0,22.3857625 22.3857625,0 50,0 C77.6142375,0 100,22.3857625 100,50 C100,77.6142375 77.6142375,100 50,100 C45.7622795,100 41.6476918,99.4728061 37.7182446,98.480426 Z M50.2713585,41.1772076 C53.002451,41.1772076 57.0990896,41.0620455 59.602591,43.710774 C60.7405462,44.8623951 61.7647059,46.9353131 61.7647059,50.2750142 C61.7647059,52.0024458 61.5371148,54.8814985 59.375,57.0695786 C56.4163165,60.0637934 51.4093137,60.2941176 48.6782213,60.2941176 L42.6470588,60.2941176 L44.9229692,41.1772076 L50.2713585,41.1772076 Z" id="Powerkit"></path>
        </g>
    </g>
</svg>